# xmcd
#
# Track frame offsets:
#	150
#	13087
#	22830
#	33022
#	44362
#	53252
#	62027
#	76055
#	89890
#	100120
#	112255
#	125355
#
# Disc length: 1848 seconds
#
# Revision: 0
# Processed by: cddbd v1.4PL0 Copyright (c) Steve Scherf et al.
# Submitted via: dBpowerAMP V4.0
#
DISCID=8c07360c
DTITLE=Faron Young - Country Dance Favorites
DYEAR=1900
DGENRE=Country
TTITLE0=Save The Last Dance For Me
TTITLE1=You Don't Know Me
TTITLE2=Honky Tonk Song
TTITLE3=Release Me
TTITLE4=Dance Her By Me (One More Time)
TTITLE5=Am I That Easy To Forget
TTITLE6=She Thinks I Still Care
TTITLE7=Faded Love
TTITLE8=Till I Waltz Again With You
TTITLE9=I Can't Stop Loving You
TTITLE10=San Antonio Rose
TTITLE11=The Last Waltz
EXTD=
EXTT0=
EXTT1=
EXTT2=
EXTT3=
EXTT4=
EXTT5=
EXTT6=
EXTT7=
EXTT8=
EXTT9=
EXTT10=
EXTT11=
PLAYORDER=
